<svg width="582" height="734" viewBox="0 0 582 734" fill="none" xmlns="http://www.w3.org/2000/svg">
<path d="M293.447 602.802C287.173 602.802 281.279 602.228 275.951 601.356C260.568 598.842 245.958 591.999 233.697 581.564L187.651 542.376C187.562 542.301 187.473 542.22 187.388 542.133C183.562 538.307 180.727 534.395 178.676 530.487C172.809 524.689 164.551 515.164 158.185 502.431C157.89 501.841 157.595 501.238 157.307 500.626C161.31 506.072 165.313 510.457 168.583 513.689C170.634 517.609 173.491 521.533 177.33 525.373C177.415 525.458 177.505 525.538 177.597 525.617L223.639 564.802C235.901 575.236 250.513 582.08 265.892 584.594C271.222 585.466 277.115 586.04 283.389 586.04C304.454 586.04 329.822 579.57 352.655 556.166C352.735 556.086 352.811 556.003 352.883 555.918L440.211 451.844C442.628 448.965 444.649 445.773 446.219 442.354L446.48 441.773C458.032 416.202 457.175 387.303 445.708 362.796C466.115 390.02 470.857 426.833 456.538 458.535L456.306 459.054C454.703 462.536 452.682 465.729 450.269 468.608L362.941 572.68C362.869 572.765 362.793 572.847 362.717 572.928C339.88 596.332 314.512 602.8 293.447 602.802ZM411.336 322.38L402.915 315.309L398.865 311.85L424.525 245.61C428.87 234.392 428.748 222.52 425.035 211.973C437.131 225.17 441.472 244.58 434.583 262.371L411.336 322.38ZM224.29 278.981L222.214 277.243C214.523 270.784 209.456 263.565 207.076 255.706C208.618 257.338 210.312 258.933 212.156 260.481L218.98 266.193L224.29 278.981ZM412.821 192.993C409.273 189.584 405.16 186.677 400.553 184.433L407.489 158.74C411.885 160.554 416.23 162.474 420.517 164.49L412.821 192.993Z" fill="#B88F59"/>
<path d="M178.642 516.662C178.642 516.662 114.509 468.565 158.909 397.034L234.14 309.47L330.34 413.066L347.608 459.931L303.205 514.195C303.205 514.195 258.81 524.061 255.107 525.295C251.408 526.529 205.773 526.529 204.541 525.295C203.306 524.061 178.642 516.662 178.642 516.662Z" fill="#FFCC80"/>
<path d="M253.757 521.033C253.734 521.04 253.714 521.047 253.697 521.054C253.714 521.047 253.734 521.04 253.757 521.033ZM206.269 521.147C211.933 522.001 249.465 521.916 253.82 521.013C257.976 519.708 292.176 512.068 300.73 510.168L342.531 459.077L326.457 415.447L234.271 316.176L162.527 399.679C145.223 427.724 143.017 455.211 155.978 481.376C164.728 499.04 177.832 510.267 180.744 512.623C198.34 517.913 204.103 520.05 206.269 521.147ZM202.11 529.021H202.12H202.11ZM228.903 530.688C206.359 530.688 203.286 530.058 201.861 528.9C199.396 527.778 187.71 524.046 177.358 520.942C176.855 520.79 176.382 520.551 175.961 520.236C175.273 519.719 158.96 507.328 148.129 485.667C138.053 465.521 131.087 433.377 155.111 394.673C155.234 394.477 155.37 394.291 155.52 394.119L230.754 306.553C231.581 305.586 232.783 305.021 234.056 304.998C235.358 304.975 236.553 305.49 237.42 306.426L333.619 410.023C334.021 410.455 334.333 410.963 334.536 411.517L351.806 458.383C352.354 459.871 352.075 461.535 351.068 462.761L306.669 517.024C306.035 517.799 305.158 518.34 304.178 518.557C287.101 522.352 259.058 528.688 256.524 529.533C253.661 530.487 239.922 530.688 228.903 530.688Z" fill="#6D4C41"/>
<path d="M158.343 485.829C158.017 485.256 157.696 484.674 157.377 484.083C156.952 483.295 156.534 482.491 156.125 481.672C155.548 480.523 155.003 479.369 154.487 478.214C154.478 478.192 154.469 478.174 154.46 478.152C154.46 478.149 154.46 478.149 154.458 478.149C143.225 452.954 145.931 426.574 162.525 399.679L209.954 344.479C210.484 346.921 211.241 349.326 212.223 351.694L197.393 368.954C193.174 371.143 189.177 374.336 185.651 378.804C185.562 378.912 182.255 383.097 179.551 389.724L168.114 403.032C152.359 428.566 149.118 453.626 158.442 477.65C158.128 480.271 158.072 483.008 158.343 485.829Z" fill="#FFE6C0"/>
<path d="M158.343 485.832C158.017 485.256 157.696 484.674 157.376 484.083C157.696 484.674 158.017 485.256 158.343 485.829C158.343 485.832 158.343 485.829 158.343 485.832ZM154.486 478.214C154.477 478.192 154.468 478.174 154.46 478.152C154.468 478.174 154.477 478.192 154.486 478.214ZM154.457 478.149C143.22 452.957 145.927 426.583 162.525 399.679C145.931 426.574 143.224 452.954 154.457 478.149ZM162.525 399.679L209.954 344.479C209.954 344.482 209.954 344.479 209.954 344.479L162.525 399.679Z" fill="#B6A6A0"/>
<path d="M368.828 359.269L298.54 332.043C295.244 330.764 293.604 327.054 294.883 323.753L338.12 212.143C346.918 189.435 372.456 178.157 395.165 186.954C417.874 195.748 429.152 221.289 420.354 243.998L377.117 355.608C375.838 358.908 372.124 360.548 368.828 359.269Z" fill="#FFCC80"/>
<path d="M370.443 355.098C371.44 355.487 372.563 354.991 372.948 353.991L416.189 242.379C424.078 222.01 413.926 199.013 393.552 191.12C383.683 187.299 372.916 187.545 363.235 191.821C353.551 196.098 346.113 203.884 342.292 213.757L299.051 325.368C298.666 326.361 299.162 327.488 300.158 327.874L370.443 355.098ZM371.132 364.171C369.824 364.171 368.5 363.938 367.216 363.433H367.212L296.931 336.213C291.335 334.044 288.551 327.73 290.715 322.138L333.952 210.526C338.638 198.431 347.753 188.882 359.623 183.642C371.489 178.406 384.687 178.098 396.783 182.785C421.753 192.457 434.197 220.641 424.525 245.61L381.284 357.222C379.619 361.527 375.495 364.171 371.132 364.171Z" fill="#6D4C41"/>
<path d="M415.487 244.186C417.575 235.727 416.827 226.867 413.251 218.767C410.895 213.432 407.474 208.781 403.229 205.037L404.951 197.916C417.201 208.383 422.27 225.745 416.461 241.647C416.461 241.659 416.457 241.671 416.449 241.679C416.449 241.683 416.449 241.687 416.445 241.691C416.366 241.922 416.278 242.153 416.187 242.379L415.487 244.186Z" fill="#FFE6C0"/>
<path d="M416.445 241.69C416.449 241.686 416.453 241.682 416.453 241.678C416.449 241.686 416.449 241.686 416.445 241.69ZM416.461 241.646C422.27 225.744 417.201 208.385 404.951 197.913L404.959 197.898C409.439 201.713 413.04 206.519 415.487 212.061C419.656 221.507 419.994 231.982 416.461 241.646Z" fill="#B6A6A0"/>
<path d="M236.865 297.604C239.096 302.978 245.264 305.529 250.639 303.296L269.84 295.323C273.434 293.828 275.466 290.109 275.019 286.242C273.466 272.834 287.171 267.142 287.171 267.142C298.355 262.498 305.455 267.746 309.204 272.339C311.633 275.311 315.778 276.249 319.32 274.776L338.563 266.786C343.938 264.553 346.489 258.388 344.255 253.013L296.578 138.201L188.96 182.236L236.865 297.604Z" fill="#EEEEEE"/>
<path d="M264.241 87.8059L245 95.797C241.455 97.2673 239.196 100.866 239.587 104.684C240.19 110.58 238.899 119.313 227.712 123.957C227.712 123.957 214.01 129.647 205.604 119.079C203.184 116.036 199.113 114.85 195.519 116.344L176.321 124.312C170.943 126.548 168.396 132.714 170.628 138.091L188.96 182.238L296.58 138.203L278.018 93.5005C275.785 88.1233 269.617 85.5748 264.241 87.8059Z" fill="#6C63FF"/>
<path d="M240.865 119.031C244.211 113.793 244.426 108.068 244.032 104.23C243.849 102.426 244.951 100.659 246.714 99.924L251.129 98.0922C250.977 98.8864 250.934 99.7082 251.021 100.544C251.591 106.122 250.465 114.243 240.865 119.031Z" fill="#C0BCFF"/>
<path d="M193.096 180.548L200.201 177.639L193.096 180.548Z" fill="#F7F7F7"/>
<path d="M193.096 180.546L174.755 136.38C173.47 133.286 174.943 129.728 178.032 128.444L181.684 126.93C181.022 129.163 181.096 131.631 182.059 133.952L200.201 177.642L193.096 180.546Z" fill="#C0BCFF"/>
<path d="M197.234 120.47L178.032 128.446C174.943 129.726 173.471 133.285 174.756 136.379L240.993 295.891C242.273 298.981 245.833 300.448 248.927 299.168L268.125 291.193C269.817 290.489 270.803 288.712 270.577 286.762C269.044 273.502 279.638 265.433 285.456 263.013C299.684 257.105 308.61 264.546 312.667 269.512C313.811 270.914 315.842 271.383 317.606 270.651L336.846 262.662C339.941 261.377 341.408 257.818 340.128 254.728L273.889 95.2165C272.607 92.1219 269.049 90.6497 265.955 91.9344L246.714 99.924C244.951 100.66 243.849 102.428 244.032 104.228C244.687 110.605 243.659 122.177 229.427 128.089C223.609 130.504 210.413 132.309 202.106 121.863C200.885 120.33 198.925 119.767 197.234 120.47ZM246.598 308.579C244.656 308.579 242.713 308.199 240.865 307.435C237.159 305.901 234.272 303.022 232.734 299.318L166.498 139.807C163.324 132.164 166.96 123.363 174.604 120.189L193.805 112.213C199.223 109.967 205.369 111.608 209.101 116.302C215.259 124.038 225.582 119.997 226.02 119.823C232.871 116.977 235.861 112.171 235.139 105.143C234.556 99.4458 237.906 93.9036 243.286 91.6718L262.527 83.6822C266.23 82.1443 270.311 82.1395 274.015 83.6681C277.72 85.2013 280.608 88.0849 282.146 91.789L348.381 251.296C351.555 258.943 347.921 267.744 340.273 270.914L321.035 278.908C315.657 281.14 309.368 279.602 305.743 275.166C301.268 269.69 295.752 268.419 288.884 271.27C288.471 271.448 278.321 275.907 279.459 285.735C280.147 291.69 276.972 297.199 271.556 299.45L252.353 307.425C250.498 308.194 248.549 308.579 246.598 308.579Z" fill="#6D4C41"/>
<path d="M244.987 223.169L251.047 216.245C252.15 214.982 252.563 213.257 252.146 211.63L249.879 202.716C248.836 198.623 252.94 195.11 256.825 196.774L265.282 200.395C266.825 201.056 268.594 200.916 270.013 200.018L277.792 195.102C281.36 192.849 285.972 195.668 285.587 199.874L284.757 209.035C284.608 210.707 285.286 212.347 286.577 213.418L293.654 219.296C296.902 221.994 295.647 227.251 291.525 228.189L282.555 230.23C280.919 230.599 279.572 231.754 278.951 233.313L275.546 241.858C273.983 245.783 268.598 246.212 266.432 242.583L261.721 234.681C260.863 233.241 259.347 232.319 257.671 232.207L248.494 231.613C244.276 231.337 242.206 226.349 244.987 223.169Z" fill="#EEEEEE"/>
<path d="M248.349 226.112C248.28 226.193 248.094 226.407 248.241 226.769C248.391 227.128 248.675 227.148 248.782 227.152L257.962 227.749C261.102 227.954 263.944 229.692 265.557 232.397L270.269 240.298C270.326 240.39 270.463 240.62 270.858 240.6C271.249 240.572 271.354 240.306 271.39 240.209L274.796 231.663C275.961 228.732 278.493 226.572 281.565 225.874L290.53 223.831C290.639 223.806 290.913 223.746 291.002 223.367C291.095 222.984 290.877 222.803 290.792 222.738L283.717 216.861C281.299 214.849 280.017 211.774 280.303 208.638L281.134 199.475C281.146 199.366 281.17 199.084 280.835 198.882C280.505 198.677 280.263 198.83 280.174 198.886L272.398 203.8C269.737 205.481 266.42 205.747 263.521 204.506L255.064 200.886C254.967 200.845 254.705 200.729 254.411 200.987C254.112 201.236 254.181 201.511 254.209 201.615L256.479 210.528C257.257 213.584 256.483 216.821 254.407 219.191L248.349 226.112ZM270.789 249.545C267.427 249.545 264.339 247.804 262.594 244.877L257.882 236.976C257.773 236.799 257.587 236.686 257.382 236.674L248.201 236.077C244.54 235.835 241.393 233.582 239.985 230.196C238.58 226.81 239.205 222.988 241.621 220.227L247.678 213.306C247.815 213.148 247.866 212.939 247.815 212.737L245.546 203.82C244.641 200.269 245.81 196.577 248.597 194.194C251.384 191.808 255.213 191.223 258.583 192.666L267.04 196.286C267.23 196.371 267.448 196.351 267.621 196.242L275.397 191.328C278.501 189.369 282.371 189.341 285.499 191.256C288.632 193.17 290.369 196.625 290.038 200.281L289.208 209.44C289.188 209.645 289.273 209.851 289.43 209.984L296.509 215.861C299.33 218.203 300.552 221.876 299.701 225.447C298.847 229.015 296.093 231.736 292.518 232.55L283.544 234.59C283.343 234.638 283.177 234.775 283.105 234.969L279.698 243.514C278.34 246.925 275.224 249.222 271.567 249.513C271.309 249.533 271.047 249.545 270.789 249.545Z" fill="#6D4C41"/>
<path d="M188.93 180.89L251.076 155.086L188.93 180.89Z" fill="#EEEEEE"/>
<path d="M188.933 185.361C187.18 185.361 185.515 184.323 184.802 182.605C183.855 180.324 184.936 177.709 187.216 176.761L249.363 150.955C251.645 150.011 254.259 151.092 255.207 153.369C256.153 155.651 255.073 158.266 252.794 159.214L190.644 185.019C190.084 185.25 189.502 185.361 188.933 185.361Z" fill="#6D4C41"/>
<path d="M277.717 143.442L296.111 135.804L277.717 143.442Z" fill="#EEEEEE"/>
<path d="M277.719 147.91C275.968 147.91 274.304 146.873 273.589 145.157C272.644 142.874 273.723 140.261 276.005 139.313L294.398 131.673C296.677 130.729 299.294 131.809 300.242 134.088C301.191 136.367 300.106 138.983 297.827 139.932L279.431 147.567C278.873 147.8 278.292 147.91 277.719 147.91Z" fill="#6D4C41"/>
<path d="M257.501 251.016C255.983 256.633 259.309 262.422 264.93 263.936L285.003 269.359C288.758 270.37 292.639 268.665 294.643 265.336C301.612 253.767 315.936 257.635 315.936 257.635C327.629 260.792 330.04 269.284 330.204 275.209C330.314 279.047 333.021 282.319 336.726 283.321L356.84 288.752C362.457 290.267 368.246 286.942 369.761 281.321L403.338 156.958L291.078 126.653L257.501 251.016Z" fill="#EEEEEE"/>
<path d="M341.823 90.5895C341.767 86.7009 339.269 83.2712 335.513 82.2589L315.444 76.8424C309.822 75.3239 304.036 78.6495 302.521 84.2694L291.078 126.651L403.337 156.959L414.78 114.578C416.299 108.958 412.973 103.173 407.353 101.654L387.238 96.2236C383.534 95.2254 379.546 96.6919 377.521 99.9513C374.399 104.989 368.041 111.115 356.347 107.955C356.347 107.955 342.022 104.091 341.823 90.5895Z" fill="#EEBA04"/>
<path d="M370.296 120.308C368.442 120.308 366.41 120.042 364.181 119.443C364.181 119.443 356.858 117.461 352.615 111.387C353.535 111.767 354.404 112.06 355.182 112.271C357.865 112.994 360.313 113.31 362.556 113.31C372.749 113.31 378.557 106.769 381.326 102.302C382.077 101.089 383.455 100.38 384.905 100.38C385.294 100.38 385.688 100.43 386.073 100.536L401.607 104.728C401.332 105.593 400.856 107.076 400.165 109.085L395.076 107.707C394.302 107.502 393.515 107.401 392.741 107.401C389.794 107.401 386.961 108.856 385.359 111.438C382.828 115.516 378.182 120.308 370.296 120.308Z" fill="#FFBCA7"/>
<path d="M302.456 125.018L296.578 123.43L306.834 85.4342C307.257 83.8704 308.265 82.5603 309.67 81.7525C310.605 81.2172 311.637 80.9448 312.685 80.9448C313.217 80.9448 313.751 81.0152 314.277 81.1561L334.348 86.5754C336.118 87.0544 337.325 88.6933 337.354 90.6516C337.363 91.1635 337.386 91.6612 337.424 92.1496L323.279 88.3317C322.359 88.0828 321.433 87.9608 320.522 87.9608C315.877 87.9608 311.624 91.0602 310.355 95.7563L302.456 125.018Z" fill="#FFBCA7"/>
<path d="M310.629 252.528C313.151 252.528 315.408 252.861 317.102 253.322C331.977 257.335 334.496 268.678 334.677 275.087C334.725 276.898 336.046 278.51 337.891 279.004L358.006 284.433C359.57 284.861 361.206 284.647 362.613 283.839C364.02 283.031 365.024 281.723 365.447 280.155L410.465 113.412C410.888 111.848 410.674 110.208 409.866 108.805C409.058 107.398 407.755 106.39 406.186 105.967L386.071 100.538C384.231 100.039 382.277 100.766 381.321 102.306C377.946 107.755 370.049 116.288 355.182 112.271C349.102 110.631 337.549 103.999 337.354 90.654C337.325 88.6905 336.118 87.0503 334.349 86.5749L314.277 81.1552C312.712 80.7368 311.076 80.946 309.67 81.7542C308.264 82.5624 307.257 83.8698 306.834 85.4339L261.817 252.181C260.945 255.414 262.863 258.751 266.095 259.621L286.167 265.041C287.938 265.521 289.804 264.713 290.816 263.03C295.784 254.782 304.099 252.528 310.629 252.528ZM359.613 293.59C358.296 293.59 356.975 293.419 355.672 293.067L335.557 287.633C329.937 286.116 325.896 281.058 325.739 275.334C325.539 268.269 321.954 263.891 314.771 261.951C314.337 261.837 303.578 259.165 298.475 267.642C295.382 272.776 289.5 275.201 283.836 273.675L263.766 268.255C255.773 266.097 251.029 257.843 253.186 249.852L298.205 83.1044C299.248 79.2345 301.738 76.0016 305.214 74.0049C308.691 72.0034 312.737 71.4805 316.608 72.5264L336.679 77.9461C342.341 79.4722 346.206 84.5259 346.292 90.5209C346.439 100.414 357.079 103.519 357.531 103.647C364.696 105.582 369.997 103.604 373.724 97.595C376.743 92.7268 382.781 90.3925 388.401 91.9091L408.516 97.3383C412.391 98.3842 415.619 100.875 417.62 104.351C419.617 107.826 420.14 111.872 419.094 115.742L374.081 282.489C373.035 286.359 370.543 289.592 367.068 291.588C364.762 292.915 362.2 293.59 359.613 293.59Z" fill="#6D4C41"/>
<path d="M291.003 125.971L355.972 143.509L291.003 125.971Z" fill="#EEEEEE"/>
<path d="M355.974 147.422C355.636 147.422 355.289 147.378 354.951 147.285L289.984 129.748C287.899 129.183 286.665 127.04 287.226 124.954C287.789 122.869 289.94 121.633 292.022 122.198L356.988 139.734C359.073 140.299 360.31 142.447 359.745 144.532C359.278 146.275 357.695 147.422 355.974 147.422Z" fill="#6D4C41"/>
<path d="M384.177 150.569L403.405 155.76L384.177 150.569Z" fill="#EEEEEE"/>
<path d="M403.407 159.671C403.072 159.671 402.728 159.628 402.385 159.533L383.157 154.344C381.069 153.782 379.836 151.634 380.399 149.551C380.962 147.463 383.11 146.23 385.193 146.793L404.425 151.982C406.509 152.549 407.746 154.692 407.179 156.78C406.71 158.524 405.13 159.671 403.407 159.671Z" fill="#6D4C41"/>
<path d="M364.326 282.377L309.583 235.657C318.344 230.944 326.454 224.974 333.931 218.203L338.073 221.907C339.757 223.417 341.918 224.246 344.163 224.246C348.982 224.246 352.894 220.636 353.269 215.847L354.119 205.007L363.616 199.589C366.661 197.858 368.413 194.613 368.196 191.122C367.992 187.915 366.168 185.117 363.365 183.637C370.293 173.443 376.264 163.016 381.291 153.213C381.776 153.741 382.409 154.145 383.153 154.344L398.311 158.436L365.449 280.157C365.228 280.978 364.841 281.731 364.326 282.377Z" fill="#D4CECB"/>
<path d="M367.223 284.847L364.323 282.378C364.842 281.732 365.226 280.981 365.446 280.158L398.309 158.437L402.386 159.539C402.466 159.56 402.546 159.577 402.627 159.594L384.899 225.251L367.223 284.847Z" fill="#6D4C41"/>
<path d="M400.351 150.888L385.192 146.794C384.98 146.735 384.767 146.699 384.554 146.676C392.516 130.283 397.686 116.297 400.165 109.087L410.678 111.923C410.669 112.42 410.597 112.918 410.465 113.411L400.351 150.888Z" fill="#BB9205"/>
<path d="M410.68 111.923L400.164 109.084C400.851 107.077 401.334 105.594 401.607 104.729L406.189 105.967C407.754 106.39 409.06 107.396 409.87 108.802C410.425 109.767 410.698 110.84 410.68 111.923Z" fill="#E2A693"/>
<path d="M404.662 152.058C404.584 152.031 404.502 152.008 404.424 151.985L400.349 150.884L410.468 113.411C410.601 112.918 410.669 112.42 410.678 111.926C410.697 110.839 410.422 109.77 409.87 108.806C409.057 107.399 407.755 106.39 406.188 105.969L401.606 104.731C401.788 104.156 401.88 103.85 401.88 103.85L407.773 101.79C413.132 103.48 416.261 109.099 414.781 114.576L404.662 152.058Z" fill="#6D4C41"/>
<path d="M402.63 159.591C402.549 159.574 402.467 159.557 402.386 159.535L398.312 158.432L383.157 154.341C382.41 154.144 381.779 153.74 381.294 153.212C382.428 150.997 383.518 148.816 384.557 146.674C384.767 146.696 384.982 146.734 385.197 146.79L400.351 150.881L404.425 151.984C404.506 152.006 404.588 152.027 404.665 152.057L403.343 156.955L402.63 159.591Z" fill="#6D4C41"/>
<path d="M344.162 220.894C342.748 220.894 341.376 220.366 340.309 219.413L330.783 210.887L318.341 213.807C317.897 213.911 317.445 213.962 317.002 213.962C315.036 213.962 313.224 212.97 312.149 211.309C311.086 209.673 310.927 207.628 311.726 205.845L316.893 194.299L310.212 183.48C309.116 181.707 309.066 179.477 310.078 177.665C311.095 175.841 313.023 174.708 315.107 174.708C315.316 174.708 315.525 174.716 315.739 174.741L328.465 176.105L336.749 166.495C337.849 165.224 339.439 164.496 341.112 164.496C343.873 164.496 346.208 166.37 346.785 169.056L349.467 181.464L361.29 186.359C363.348 187.212 364.712 189.12 364.846 191.329C364.984 193.533 363.88 195.583 361.955 196.679L350.914 202.976L349.927 215.589C349.693 218.609 347.216 220.894 344.162 220.894Z" fill="#FFCA28"/>
<path d="M341.114 161.144C338.461 161.144 335.947 162.296 334.215 164.306L327.072 172.584L316.095 171.411C315.762 171.373 315.435 171.356 315.107 171.356C311.811 171.356 308.763 173.147 307.148 176.035C305.546 178.907 305.626 182.434 307.358 185.242L313.11 194.55L308.666 204.476C307.4 207.301 307.648 210.538 309.334 213.136C311.029 215.751 313.896 217.315 316.998 217.315C317.705 217.315 318.411 217.231 319.105 217.071L329.846 214.549L338.074 221.91C339.76 223.415 341.921 224.243 344.162 224.243C348.984 224.243 352.894 220.636 353.268 215.848L354.117 205.01L363.619 199.591C366.658 197.858 368.412 194.613 368.193 191.119C367.974 187.622 365.822 184.611 362.572 183.262L352.368 179.041L350.06 168.35C349.148 164.108 345.465 161.144 341.114 161.144ZM341.114 167.85C342.186 167.85 343.245 168.552 343.51 169.763L346.289 182.652C346.457 183.426 347 184.069 347.735 184.376L360.003 189.459C361.866 190.228 362.038 192.776 360.297 193.768L348.816 200.318C348.122 200.709 347.672 201.415 347.613 202.205L346.583 215.326C346.478 216.676 345.347 217.542 344.162 217.542C343.603 217.542 343.027 217.344 342.547 216.911L332.668 208.074C332.213 207.671 331.629 207.452 331.036 207.452C330.851 207.452 330.662 207.473 330.477 207.515L317.574 210.542C317.381 210.588 317.188 210.609 316.998 210.609C315.313 210.609 314.056 208.852 314.787 207.217L320.164 195.206C320.488 194.478 320.429 193.646 320.013 192.969L313.063 181.719C312.059 180.092 313.261 178.062 315.107 178.062C315.199 178.062 315.287 178.066 315.38 178.074L328.585 179.491C328.674 179.499 328.762 179.508 328.846 179.508C329.548 179.508 330.221 179.201 330.679 178.667L339.289 168.686C339.785 168.115 340.449 167.85 341.114 167.85Z" fill="#6D4C41"/>
<path d="M335.309 190.592L329.615 181.242L329.832 181.267C329.919 181.275 330.006 181.28 330.094 181.28C330.797 181.28 331.466 180.976 331.928 180.444L340.538 170.462C340.633 170.354 340.729 170.258 340.833 170.171L335.309 190.592ZM329.786 179.312H329.79C329.907 179.267 330.023 179.204 330.135 179.133C330.023 179.204 329.906 179.267 329.786 179.312ZM330.139 179.133C330.139 179.129 330.139 179.129 330.139 179.129C330.139 179.129 330.139 179.129 330.139 179.133ZM330.68 178.668L339.29 168.686C339.356 168.611 339.423 168.54 339.498 168.474C339.423 168.54 339.356 168.611 339.29 168.686L330.68 178.668Z" fill="#E2B12D"/>
<path d="M329.79 179.312C329.853 179.25 329.919 179.188 329.977 179.117L338.595 169.127C338.857 168.827 339.165 168.611 339.498 168.474C339.423 168.54 339.356 168.611 339.29 168.686L330.68 178.668C330.522 178.851 330.343 179.005 330.14 179.13C330.14 179.13 330.14 179.13 330.14 179.134H330.135C330.023 179.204 329.907 179.267 329.79 179.312Z" fill="#6D4C41"/>
<path d="M361.477 191.343C361.404 191.306 361.331 191.266 361.254 191.233L348.986 186.151C348.25 185.847 347.706 185.201 347.539 184.425L347.503 184.262C347.58 184.303 347.657 184.339 347.738 184.376L360.007 189.458C360.072 189.482 360.133 189.511 360.194 189.543C360.198 189.543 360.198 189.543 360.198 189.547C360.202 189.547 360.206 189.547 360.21 189.551C360.214 189.551 360.218 189.555 360.222 189.555C360.953 189.941 361.376 190.624 361.477 191.343Z" fill="#FFE594"/>
<path d="M360.222 189.56C360.218 189.56 360.218 189.56 360.218 189.56C360.218 189.56 360.218 189.56 360.222 189.56ZM360.21 189.551C360.206 189.551 360.202 189.547 360.198 189.547C360.202 189.547 360.206 189.551 360.21 189.551ZM360.193 189.547C360.133 189.515 360.072 189.486 360.007 189.458L347.738 184.376L360.007 189.458C360.072 189.486 360.133 189.515 360.193 189.547ZM347.738 184.376C347.657 184.344 347.58 184.303 347.503 184.266V184.262C347.58 184.303 347.657 184.344 347.738 184.376Z" fill="#B6A6A0"/>
<path d="M315.262 209.86C314.655 209.237 314.385 208.294 314.721 207.376C314.721 207.371 314.721 207.371 314.721 207.371C314.721 207.367 314.725 207.363 314.729 207.359V207.355C314.729 207.351 314.733 207.347 314.733 207.343V207.339C314.737 207.335 314.737 207.326 314.742 207.322C314.742 207.318 314.746 207.314 314.746 207.314C314.746 207.31 314.746 207.306 314.75 207.306C314.75 207.302 314.754 207.298 314.754 207.298C314.754 207.294 314.754 207.289 314.758 207.285C314.758 207.281 314.758 207.281 314.762 207.277C314.762 207.273 314.762 207.269 314.762 207.265C314.766 207.261 314.766 207.257 314.77 207.253C314.77 207.253 314.77 207.253 314.77 207.248C314.774 207.244 314.774 207.24 314.778 207.236V207.232C314.782 207.224 314.787 207.22 314.787 207.212L319.941 195.702L321.507 195.288C321.683 195.841 321.651 196.44 321.409 196.981L316.033 208.991C315.963 209.143 315.91 209.299 315.877 209.459L315.262 209.86ZM314.053 181.54L312.704 180.572C312.671 179.83 312.991 179.116 313.54 178.645C313.95 178.284 314.495 178.058 315.106 178.058C315.201 178.058 315.287 178.063 315.381 178.075L321.983 178.784L328.589 179.489C328.638 179.494 328.687 179.498 328.732 179.502C328.773 179.502 328.81 179.506 328.847 179.506C329.175 179.506 329.495 179.436 329.786 179.313C329.499 179.58 329.154 179.768 328.781 179.871L329.618 181.244L316.628 179.85C316.537 179.838 316.443 179.834 316.353 179.834C315.234 179.834 314.348 180.584 314.053 181.54Z" fill="#FFE594"/>
<path d="M314.723 207.375C314.723 207.371 314.723 207.371 314.723 207.371C314.723 207.371 314.723 207.371 314.723 207.375ZM314.727 207.363C314.727 207.359 314.727 207.359 314.731 207.359C314.727 207.359 314.727 207.359 314.727 207.363ZM314.743 207.322C314.743 207.318 314.743 207.318 314.743 207.314C314.743 207.318 314.743 207.318 314.743 207.322ZM314.747 207.305C314.747 207.301 314.751 207.297 314.751 207.297C314.751 207.297 314.747 207.301 314.747 207.305ZM314.755 207.289C314.755 207.285 314.76 207.281 314.76 207.277C314.76 207.281 314.755 207.285 314.755 207.289ZM314.764 207.269C314.764 207.264 314.768 207.26 314.768 207.256C314.768 207.26 314.764 207.264 314.764 207.269ZM314.772 207.248C314.772 207.244 314.772 207.24 314.776 207.236C314.772 207.24 314.772 207.244 314.772 207.248ZM314.78 207.232C314.784 207.223 314.784 207.219 314.788 207.215C314.784 207.219 314.784 207.223 314.78 207.232ZM312.703 180.57C312.67 179.829 312.99 179.12 313.539 178.645C312.99 179.12 312.67 179.829 312.703 180.57ZM328.734 179.501C328.685 179.497 328.635 179.497 328.586 179.489L321.982 178.784L328.586 179.489C328.635 179.497 328.685 179.497 328.734 179.501Z" fill="#B6A6A0"/>
<path d="M340.833 170.17L341.299 168.455L341.266 168.443L340.887 168.339C340.729 168.31 340.571 168.297 340.413 168.297C340.1 168.297 339.792 168.351 339.497 168.476C339.572 168.405 339.651 168.339 339.734 168.28C340 168.093 340.288 167.968 340.587 167.906C340.762 167.864 340.937 167.848 341.112 167.848C341.82 167.848 342.519 168.151 342.99 168.701C343.235 168.992 343.418 169.346 343.51 169.762L343.543 169.925C343.181 169.729 342.769 169.625 342.357 169.625C341.824 169.625 341.283 169.8 340.833 170.17Z" fill="#FFE594"/>
<path d="M343.543 169.924L343.509 169.766C343.418 169.35 343.234 168.992 342.989 168.705C343.234 168.992 343.418 169.35 343.509 169.766L343.543 169.924ZM339.734 168.28C340 168.097 340.287 167.972 340.587 167.905C340.287 167.972 340 168.097 339.734 168.28Z" fill="#B6A6A0"/>
<path d="M330.091 181.279C330.008 181.279 329.917 181.275 329.829 181.267L329.617 181.242L328.781 179.869C329.155 179.769 329.501 179.582 329.788 179.316C329.908 179.266 330.025 179.208 330.133 179.137C330.137 179.133 330.137 179.133 330.137 179.133C330.141 179.133 330.141 179.133 330.141 179.133C330.341 179.008 330.52 178.85 330.682 178.667L339.29 168.686C339.356 168.612 339.423 168.541 339.494 168.474C339.789 168.354 340.101 168.295 340.413 168.295C340.571 168.295 340.729 168.312 340.887 168.341L341.266 168.445L341.295 168.453L340.833 170.172C340.729 170.259 340.629 170.355 340.538 170.463L331.926 180.443C331.468 180.98 330.794 181.279 330.091 181.279Z" fill="#F1D896"/>
<path d="M330.131 179.138C330.136 179.134 330.136 179.134 330.136 179.134C330.136 179.134 330.136 179.134 330.131 179.138ZM330.14 179.129C330.341 179.006 330.522 178.85 330.682 178.665C330.522 178.85 330.341 179.006 330.14 179.129Z" fill="#B6A6A0"/>
<path d="M321.509 195.287C321.452 195.099 321.366 194.916 321.26 194.745L314.313 183.495C313.918 182.855 313.861 182.157 314.052 181.541L330.042 193.04L321.509 195.287Z" fill="#E2B12D"/>
<path d="M319.369 195.854L319.455 195.665C319.778 194.942 319.721 194.108 319.304 193.43L312.347 182.173C311.938 181.511 311.901 180.783 312.118 180.149L312.702 180.57C312.723 180.955 312.837 181.347 313.062 181.719L320.011 192.968C320.432 193.646 320.485 194.48 320.166 195.204L319.941 195.702L319.369 195.854Z" fill="#6D4C41"/>
<path d="M319.941 195.703L320.166 195.204C320.485 194.481 320.432 193.648 320.011 192.97L313.062 181.72C312.838 181.348 312.723 180.956 312.703 180.572L314.051 181.54C313.863 182.157 313.916 182.856 314.312 183.497L321.261 194.743C321.367 194.918 321.449 195.102 321.506 195.29L319.941 195.703Z" fill="#E2C683"/>
<path d="M320.166 195.204C320.485 194.481 320.432 193.648 320.011 192.97L313.062 181.72C312.838 181.348 312.723 180.956 312.703 180.572C312.723 180.956 312.838 181.348 313.062 181.72L320.011 192.97C320.432 193.648 320.485 194.481 320.166 195.204Z" fill="#A7948D"/>
<path d="M346.796 204.262L338.333 195.149L360.696 192.936C360.576 193.289 360.371 193.622 360.074 193.894L348.813 200.317C348.652 200.409 348.5 200.521 348.368 200.646L348.123 200.782C347.434 201.175 346.985 201.884 346.92 202.674L346.796 204.262Z" fill="#E2B12D"/>
<path d="M348.368 200.644C348.504 200.516 348.652 200.404 348.817 200.316L360.078 193.891C359.942 194.015 359.789 194.131 359.617 194.227L348.368 200.644Z" fill="#6D4C41"/>
<path d="M344.167 217.536C343.606 217.536 343.029 217.341 342.548 216.912L332.669 208.072C332.216 207.666 331.631 207.451 331.038 207.451C330.851 207.451 330.664 207.471 330.477 207.515L317.575 210.542C317.38 210.586 317.189 210.606 317.002 210.606C316.318 210.606 315.701 210.319 315.263 209.862C315.435 210.037 315.629 210.188 315.848 210.307C315.808 210.033 315.812 209.746 315.88 209.456L333.326 197.931L344.426 217.524C344.338 217.532 344.251 217.536 344.167 217.536Z" fill="#E2B12D"/>
<path d="M343.464 218.014C342.908 218.014 342.335 217.818 341.853 217.391L331.967 208.543C331.516 208.14 330.928 207.92 330.336 207.92C330.148 207.92 329.96 207.944 329.776 207.987L316.863 211.013C316.671 211.06 316.479 211.08 316.29 211.08C315.604 211.08 314.993 210.79 314.55 210.331L315.263 209.864C315.698 210.319 316.318 210.609 317 210.609C317.188 210.609 317.38 210.586 317.576 210.543L330.477 207.516C330.661 207.469 330.85 207.45 331.038 207.45C331.63 207.45 332.214 207.665 332.669 208.073L342.547 216.909C343.029 217.34 343.606 217.54 344.166 217.54C344.252 217.54 344.339 217.532 344.425 217.524L344.558 217.759C344.221 217.924 343.845 218.014 343.464 218.014Z" fill="#6D4C41"/>
<path d="M315.851 210.309C315.631 210.191 315.435 210.038 315.263 209.862L315.883 209.454C315.816 209.744 315.808 210.035 315.851 210.309Z" fill="#E2C683"/>
<path d="M267.289 196.335C267.204 196.335 267.119 196.322 267.041 196.283L258.584 192.666C258.009 192.417 257.424 192.233 256.829 192.104C253.832 190.477 250.703 189.177 247.485 188.224C259.44 182.616 264.113 167.244 265.445 150.942L275.038 147.02C275.807 147.595 276.75 147.912 277.72 147.912C278.292 147.912 278.873 147.801 279.433 147.569L280.974 146.929L267.667 196.211L267.622 196.241C267.522 196.305 267.405 196.335 267.289 196.335Z" fill="#D4CECB"/>
<path d="M265.444 150.941C266.564 137.228 265.317 122.856 264.048 113.083C263.134 106.039 258.279 100.166 251.588 97.9014L265.954 91.936C266.714 91.6211 267.501 91.4729 268.276 91.4729C270.657 91.4729 272.921 92.8855 273.888 95.2151L286.641 125.931L283.914 136.028L276.005 139.312C273.723 140.261 272.643 142.873 273.589 145.157C273.909 145.921 274.416 146.555 275.037 147.019L265.444 150.941Z" fill="#4139C7"/>
<path d="M286.641 125.93L273.888 95.2158C272.921 92.8822 270.657 91.4709 268.276 91.4709C267.501 91.4709 266.714 91.6246 265.954 91.9367L251.588 97.9035C251.384 97.8336 251.177 97.7684 250.969 97.7032L269.575 87.167L276.05 89.0162L289.138 116.689L286.641 125.93Z" fill="#6D4C41"/>
<path d="M266.864 199.195L265.744 198.239C262.942 195.851 259.956 193.8 256.829 192.102C257.423 192.23 258.009 192.415 258.583 192.664L267.041 196.285C267.121 196.321 267.206 196.337 267.29 196.337C267.406 196.337 267.523 196.305 267.623 196.24L267.667 196.208L266.864 199.195Z" fill="#6D4C41"/>
<path d="M277.721 147.911C276.751 147.911 275.807 147.592 275.039 147.017C274.418 146.551 273.91 145.919 273.59 145.152C272.645 142.873 273.725 140.258 276.007 139.312L283.916 136.026L280.973 146.926L279.433 147.566C278.874 147.802 278.293 147.911 277.721 147.911Z" fill="#6D4C41"/>
<path d="M270.743 202.506L266.863 199.198L267.668 196.212L280.973 146.927L283.916 136.026L286.643 125.926L289.14 116.686L291.712 122.125C291.473 122.08 291.236 122.058 291.002 122.058C289.278 122.058 287.698 123.208 287.226 124.954C286.666 127.036 287.899 129.185 289.984 129.749L290.431 129.87L270.743 202.506Z" fill="#6D4C41"/>
<path d="M290.43 129.871L289.983 129.751C287.897 129.186 286.664 127.04 287.225 124.956C287.696 123.214 289.276 122.063 290.999 122.063C291.234 122.063 291.471 122.085 291.71 122.129L292.229 123.227L290.43 129.871Z" fill="#6D4C41"/>
<path d="M400.025 318.719L262.845 201.644C255.718 195.565 246.912 191.652 237.576 190.895C228.739 190.179 218.415 192.119 210.09 201.556C210.09 201.556 184.191 231.155 215.025 257.054L268.058 301.452C268.058 301.452 235.992 291.588 222.425 311.319C222.425 311.319 194.058 343.386 238.457 375.449C238.457 375.449 207.625 358.185 189.124 381.616C189.124 381.616 168.157 407.515 191.591 432.182L226.124 463.015C226.124 463.015 196.524 450.682 179.258 469.181C179.258 469.181 154.591 496.313 180.492 522.211L226.535 561.396C237.974 571.131 251.789 577.76 266.613 580.183C289.05 583.851 321.267 581.939 349.457 553.044L436.787 448.972C438.949 446.393 440.748 443.548 442.153 440.488C442.238 440.307 442.322 440.125 442.407 439.936C459.035 403.115 448.804 359.695 417.868 333.708L400.025 318.719Z" fill="#FFCC80"/>
<path d="M349.458 553.043H349.471H349.458ZM183.528 518.925L229.433 557.991C240.456 567.371 253.562 573.52 267.336 575.772C288.435 579.221 319.218 577.551 346.141 550.042L433.362 446.097C435.264 443.83 436.857 441.314 438.094 438.619L438.329 438.104C454.019 403.364 444.42 361.847 414.995 337.131L397.148 322.14L397.124 322.115L259.939 205.044C253.294 199.37 245.433 196.017 237.215 195.352C227.497 194.561 219.503 197.643 213.444 204.512C213.363 204.606 203.35 216.349 204.472 230.494C205.143 238.924 209.66 246.706 217.9 253.628L270.929 298.024C272.559 299.39 273.001 301.714 271.987 303.583C270.969 305.453 268.775 306.345 266.744 305.724C266.46 305.635 237.635 297.083 226.109 313.851C226.006 314.001 225.893 314.143 225.774 314.281C225.691 314.374 216.521 325.084 218.171 339.447C219.485 350.903 227.191 361.799 241.075 371.827C242.997 373.21 243.502 375.858 242.226 377.853C240.952 379.848 238.339 380.505 236.274 379.349C235.157 378.729 208.511 364.272 192.633 384.386C191.858 385.355 174.525 407.565 194.71 428.972L229.102 459.679C230.729 461.131 231.071 463.547 229.909 465.393C228.747 467.242 226.42 467.979 224.406 467.139C224.145 467.032 197.432 456.259 182.527 472.23C181.691 473.16 161.221 496.459 183.528 518.925ZM283.386 586.04C277.113 586.04 271.225 585.465 265.892 584.594C250.513 582.079 235.901 575.236 223.64 564.801L177.597 525.616C177.505 525.538 177.415 525.457 177.331 525.372C154.46 502.502 166.428 476.649 175.951 466.171C186.029 455.374 199.457 453.749 210.131 454.726L188.615 435.513C188.523 435.436 188.436 435.347 188.351 435.262C162.515 408.064 185.417 379.09 185.651 378.802C195.438 366.405 208.842 363.839 220.589 365.197C214.034 357.371 210.241 349.053 209.271 340.319C207.358 323.072 217.288 310.477 218.881 308.587C227.408 296.377 241.652 294.098 252.84 294.54L212.156 260.477C201.978 251.929 196.395 242.051 195.555 231.11C194.176 213.178 206.216 199.196 206.727 198.612C214.653 189.63 225.434 185.421 237.939 186.439C248.042 187.262 257.66 191.341 265.746 198.243L402.915 315.307L420.746 330.286C453.224 357.565 463.804 403.409 446.484 441.773L446.221 442.354C444.647 445.773 442.628 448.964 440.211 451.843L352.885 555.917C352.812 556.002 352.735 556.085 352.658 556.165C329.823 579.57 304.453 586.04 283.386 586.04Z" fill="#6D4C41"/>
<path d="M439.566 380.737C434.528 366.715 425.843 353.887 413.878 343.835L396.032 328.846L396.004 328.826L258.821 211.751C252.177 206.074 244.315 202.722 236.097 202.059C235.107 201.975 234.133 201.935 233.178 201.935C224.772 201.935 217.768 205.051 212.325 211.219C212.296 211.251 210.942 212.841 209.288 215.538C208.901 213.676 208.993 212.845 208.993 212.845C208.633 213.001 208.287 213.177 207.956 213.365C208.059 213.145 208.162 212.933 208.266 212.721C208.266 212.717 208.266 212.717 208.266 212.717C208.273 212.701 208.282 212.685 208.289 212.673C208.291 212.669 208.291 212.665 208.294 212.661C208.3 212.649 208.309 212.633 208.316 212.617L208.318 212.613C208.325 212.597 208.334 212.581 208.34 212.569C208.343 212.562 208.343 212.562 208.345 212.558C208.358 212.53 208.374 212.502 208.388 212.474C208.39 212.466 208.392 212.462 208.394 212.458C208.401 212.446 208.407 212.43 208.414 212.418C208.416 212.414 208.419 212.41 208.421 212.406C208.425 212.394 208.432 212.382 208.439 212.366C208.441 212.362 208.443 212.358 208.448 212.354C208.452 212.342 208.459 212.33 208.465 212.314C208.468 212.31 208.47 212.306 208.472 212.302C208.477 212.29 208.483 212.282 208.488 212.27C208.493 212.262 208.497 212.254 208.499 212.246C208.504 212.238 208.508 212.234 208.51 212.222C208.515 212.218 208.519 212.21 208.524 212.202C208.528 212.194 208.533 212.182 208.537 212.174C208.542 212.166 208.544 212.162 208.546 212.154C208.553 212.142 208.557 212.13 208.564 212.122C208.566 212.114 208.571 212.11 208.573 212.102C208.58 212.09 208.584 212.082 208.588 212.07C208.593 212.062 208.597 212.054 208.6 212.05C208.604 212.042 208.606 212.034 208.611 212.03C208.615 212.018 208.622 212.006 208.626 211.994C208.631 211.99 208.633 211.986 208.636 211.978C208.642 211.97 208.647 211.958 208.653 211.946C208.656 211.938 208.66 211.934 208.662 211.926C208.667 211.918 208.674 211.906 208.678 211.898C208.682 211.89 208.685 211.882 208.689 211.874C208.694 211.866 208.696 211.862 208.7 211.854C208.705 211.842 208.712 211.834 208.716 211.822C208.72 211.818 208.725 211.806 208.727 211.802C208.729 211.798 208.731 211.79 208.734 211.79C208.741 211.778 208.747 211.767 208.752 211.751C208.756 211.747 208.761 211.735 208.765 211.731C208.769 211.723 208.774 211.711 208.779 211.703C208.781 211.695 208.785 211.691 208.787 211.687C208.794 211.675 208.801 211.659 208.805 211.651C208.807 211.647 208.812 211.639 208.814 211.635C208.828 211.611 208.841 211.583 208.855 211.559C208.855 211.555 208.855 211.555 208.857 211.555C208.863 211.539 208.873 211.523 208.881 211.507C208.881 211.503 208.884 211.503 208.884 211.499C208.892 211.483 208.901 211.467 208.911 211.451C211.15 207.204 213.391 204.572 213.443 204.512C216.158 201.436 219.265 199.118 222.738 197.568C226.227 196.014 230.087 195.231 234.298 195.231C235.252 195.231 236.224 195.271 237.214 195.351C245.433 196.018 253.292 199.37 259.94 205.047L305.667 244.07L397.122 322.119L397.142 322.139L397.15 322.143L414.992 337.132C417.405 339.153 419.682 341.295 421.824 343.532C421.828 343.54 421.84 343.548 421.844 343.552C421.86 343.568 421.876 343.588 421.892 343.604C421.9 343.612 421.912 343.624 421.924 343.636C421.932 343.644 421.944 343.656 421.952 343.668C431.096 353.26 437.74 364.677 441.659 376.902C441.188 377.785 440.485 379.083 439.566 380.737Z" fill="#FFE6C0"/>
<path d="M421.952 343.667C421.944 343.655 421.932 343.644 421.924 343.636C421.932 343.648 421.944 343.655 421.952 343.667ZM421.892 343.604C421.876 343.588 421.86 343.568 421.844 343.552C421.86 343.568 421.876 343.588 421.892 343.604ZM421.824 343.532C419.682 341.295 417.405 339.153 414.992 337.132L397.15 322.143L397.142 322.139L397.15 322.143L414.996 337.132C417.405 339.157 419.682 341.295 421.824 343.532ZM305.667 244.069L259.94 205.047C253.292 199.37 245.433 196.018 237.214 195.351C245.433 196.018 253.292 199.37 259.94 205.047L305.667 244.069ZM208.266 212.721C208.266 212.717 208.266 212.717 208.266 212.717C208.266 212.717 208.266 212.717 208.266 212.721ZM208.289 212.673C208.291 212.669 208.294 212.665 208.294 212.661C208.291 212.665 208.291 212.669 208.289 212.673ZM208.316 212.617C208.316 212.613 208.318 212.613 208.318 212.613L208.316 212.617ZM208.34 212.569C208.343 212.561 208.343 212.561 208.345 212.557C208.343 212.561 208.343 212.561 208.34 212.569ZM208.388 212.473C208.389 212.465 208.392 212.461 208.394 212.457C208.392 212.461 208.389 212.465 208.388 212.473ZM208.414 212.417C208.416 212.413 208.419 212.41 208.421 212.406C208.419 212.41 208.416 212.413 208.414 212.417ZM208.439 212.366C208.441 212.362 208.443 212.358 208.448 212.354C208.443 212.358 208.441 212.362 208.439 212.366ZM208.465 212.314C208.468 212.31 208.47 212.306 208.472 212.302C208.47 212.306 208.468 212.31 208.465 212.314ZM208.488 212.27C208.493 212.262 208.497 212.254 208.499 212.246C208.497 212.254 208.493 212.262 208.488 212.27ZM208.51 212.222C208.515 212.218 208.519 212.21 208.524 212.202C208.519 212.21 208.515 212.218 208.51 212.222ZM208.537 212.174C208.542 212.166 208.544 212.162 208.546 212.154C208.544 212.162 208.542 212.166 208.537 212.174ZM208.564 212.122C208.566 212.114 208.571 212.11 208.573 212.102C208.571 212.11 208.566 212.114 208.564 212.122ZM208.588 212.07C208.593 212.062 208.597 212.054 208.6 212.05C208.597 212.054 208.593 212.062 208.588 212.07ZM208.611 212.03C208.615 212.018 208.622 212.006 208.626 211.994C208.622 212.006 208.615 212.018 208.611 212.03ZM208.636 211.978C208.642 211.97 208.647 211.958 208.653 211.946C208.647 211.958 208.642 211.97 208.636 211.978ZM208.662 211.926C208.667 211.918 208.674 211.906 208.678 211.898C208.674 211.906 208.667 211.918 208.662 211.926ZM208.689 211.874C208.694 211.866 208.696 211.858 208.7 211.854C208.696 211.862 208.694 211.866 208.689 211.874ZM208.716 211.822C208.72 211.818 208.723 211.806 208.727 211.802C208.725 211.806 208.72 211.818 208.716 211.822ZM208.734 211.79C208.741 211.778 208.747 211.766 208.752 211.75C208.747 211.766 208.741 211.778 208.734 211.79ZM208.765 211.73C208.769 211.722 208.774 211.71 208.779 211.702C208.774 211.71 208.769 211.722 208.765 211.73ZM208.787 211.686C208.794 211.674 208.801 211.658 208.805 211.65C208.801 211.658 208.794 211.674 208.787 211.686ZM208.814 211.634C208.828 211.61 208.841 211.583 208.855 211.559C208.841 211.583 208.828 211.61 208.814 211.634ZM208.857 211.555C208.863 211.539 208.873 211.523 208.881 211.507C208.873 211.523 208.863 211.539 208.857 211.555ZM208.884 211.499C208.892 211.483 208.901 211.467 208.91 211.451C208.901 211.467 208.892 211.483 208.884 211.499ZM208.91 211.451C211.152 207.204 213.391 204.571 213.443 204.511C213.391 204.571 211.15 207.204 208.91 211.451ZM222.738 197.568C226.225 196.01 230.085 195.231 234.295 195.231C235.25 195.231 236.224 195.271 237.214 195.351C236.224 195.271 235.252 195.231 234.298 195.231C230.087 195.231 226.227 196.014 222.738 197.568Z" fill="#B6A6A0"/>
<path d="M219.78 325.351C222.068 318.609 225.722 314.339 225.772 314.279C225.896 314.146 226.006 313.999 226.109 313.849C231.798 305.572 241.708 303.467 250.315 303.467C257.56 303.467 263.886 304.959 265.998 305.519L271.171 309.606C271.091 309.839 270.991 310.069 270.868 310.292C270.068 311.761 268.543 312.627 266.937 312.627C266.501 312.627 266.058 312.564 265.625 312.43C265.482 312.387 258.027 310.172 249.2 310.172C240.592 310.172 230.682 312.281 224.99 320.555C224.89 320.704 224.776 320.848 224.657 320.988C224.643 320.998 224.473 321.197 224.194 321.564C222.441 322.726 220.976 323.995 219.78 325.351Z" fill="#FFE6C0"/>
<path d="M173.204 494.309C173.912 482.069 181.951 472.874 182.519 472.238C182.522 472.235 182.522 472.235 182.522 472.235C182.524 472.233 182.524 472.231 182.526 472.231C188.86 465.444 197.322 463.487 204.983 463.487C214.101 463.487 222.081 466.261 223.979 466.973L229.315 470.913C229.202 471.322 229.028 471.723 228.791 472.099C227.952 473.434 226.505 474.188 225.006 474.188C224.43 474.188 223.848 474.077 223.289 473.845C223.138 473.781 214.237 470.192 203.865 470.192C196.206 470.192 187.742 472.149 181.41 478.935C180.99 479.403 175.627 485.506 173.204 494.309Z" fill="#FFE6C0"/>
<path d="M182.519 472.238C182.522 472.235 182.522 472.235 182.522 472.235C182.522 472.235 182.522 472.235 182.519 472.238ZM182.526 472.231C188.86 465.444 197.32 463.487 204.983 463.487C214.096 463.487 222.076 466.259 223.977 466.973H223.979C222.081 466.261 214.101 463.487 204.983 463.487C197.322 463.487 188.86 465.444 182.526 472.231Z" fill="#B6A6A0"/>
<path d="M189.634 393.821C189.088 391.89 188.906 390.788 188.868 390.524C190.64 386.931 192.4 384.678 192.635 384.385C199.093 376.205 207.332 373.743 214.909 373.743C224.496 373.743 233.022 377.681 235.553 378.968C235.745 379.067 235.904 379.148 236.023 379.212L241.591 383.547C241.475 383.895 241.315 384.237 241.109 384.559C240.26 385.887 238.816 386.624 237.337 386.624C236.597 386.624 235.846 386.441 235.156 386.052C234.492 385.684 224.847 380.447 213.793 380.447C206.212 380.447 197.974 382.912 191.516 391.089C191.368 391.275 190.617 392.238 189.634 393.821Z" fill="#FFE6C0"/>
<path d="M236.026 379.21C235.905 379.147 235.747 379.064 235.554 378.966C235.747 379.064 235.905 379.147 236.026 379.21Z" fill="#B6A6A0"/>
<path d="M270.943 298.037L371.66 389.015L265.172 304.864C263.235 303.332 262.908 300.521 264.436 298.584C265.969 296.643 268.783 296.316 270.72 297.848C270.795 297.905 270.876 297.973 270.943 298.037Z" fill="#6D4C41"/>
<path d="M241.351 372.04L319.86 444.511L235.568 378.858C233.616 377.339 233.269 374.529 234.785 372.577C236.307 370.629 239.117 370.278 241.065 371.797C241.162 371.873 241.264 371.958 241.351 372.04Z" fill="#6D4C41"/>
<path d="M228.999 459.593L280.392 508.646L223.248 466.437C221.259 464.966 220.836 462.16 222.307 460.171C223.774 458.182 226.579 457.759 228.568 459.231C228.716 459.339 228.872 459.471 228.999 459.593Z" fill="#6D4C41"/>
<path d="M283.264 577.086C277.55 577.086 272.188 576.563 267.336 575.772C253.563 573.519 240.458 567.371 229.433 557.991L183.529 518.924C176.629 511.976 173.822 504.947 173.261 498.524C201.887 519.821 229.411 528.416 255.236 528.414C352.032 528.405 424.679 407.493 439.568 380.733C444.133 393.438 445.707 407.119 444.019 420.602C447.054 405.996 446.151 390.917 441.659 376.898C441.659 376.898 441.663 376.898 441.663 376.89C447.99 396.62 447.208 418.444 438.331 438.104L438.096 438.621C436.859 441.315 435.266 443.829 433.365 446.097L346.141 550.041C325.41 571.226 302.392 577.086 283.264 577.086Z" fill="#E2B273"/>
<path d="M283.361 581.568C277.377 581.568 271.737 581.021 266.615 580.183C251.788 577.76 237.975 571.131 226.536 561.396L180.492 522.211C178.306 520.027 176.487 517.833 174.978 515.647L172.234 497.758C172.571 498.013 172.92 498.275 173.259 498.525C173.82 504.948 176.628 511.977 183.527 518.925L229.431 557.992C240.456 567.372 253.559 573.52 267.332 575.773C272.184 576.564 277.547 577.087 283.261 577.087C302.389 577.087 325.408 571.227 346.141 550.042L433.363 446.097C435.264 443.833 436.854 441.315 438.093 438.622L438.326 438.105C447.206 418.448 447.986 396.621 441.658 376.895C442.135 376.004 442.376 375.53 442.376 375.53L445.897 375.316C452.62 396.055 451.836 419.055 442.405 439.935C442.32 440.124 442.235 440.309 442.154 440.49C440.748 443.545 438.947 446.393 436.784 448.974L349.458 553.044C327.708 575.337 303.561 581.568 283.361 581.568Z" fill="#6D4C41"/>
<path d="M444.016 420.602C445.705 407.121 444.133 393.439 439.564 380.736C440.484 379.08 441.187 377.783 441.66 376.9C446.152 390.919 447.054 406 444.016 420.602Z" fill="#E2C7A7"/>
<path d="M164.6 490.338C163.602 488.641 162.635 486.869 161.714 485.022C160.49 482.576 159.398 480.116 158.441 477.65C160.802 457.786 177.822 444.119 177.822 444.119C166.615 426.878 173.687 404.952 177.504 395.83C174.665 406.633 174.983 421.187 188.352 435.26C188.437 435.345 188.523 435.434 188.617 435.514L210.132 454.726C208.46 454.574 206.718 454.482 204.932 454.482C195.329 454.482 184.451 457.067 175.954 466.17C171.307 471.278 166.082 480.044 164.6 490.338Z" fill="#E2B273"/>
<path d="M164.75 502.521L162.135 499.291C159.938 494.636 158.76 490.128 158.344 485.832C160.215 489.127 162.206 492.155 164.204 494.897C164.131 497.38 164.296 499.932 164.75 502.521Z" fill="#6D4C41"/>
<path d="M164.203 494.887C162.203 492.143 160.212 489.118 158.344 485.831C158.072 483.008 158.126 480.273 158.441 477.651C159.396 480.119 160.486 482.576 161.712 485.024C162.633 486.87 163.601 488.641 164.599 490.34C164.384 491.824 164.248 493.342 164.203 494.887Z" fill="#E2C7A7"/>
<path d="M164.204 494.897C162.206 492.155 160.215 489.126 158.344 485.832C158.344 485.83 158.344 485.832 158.344 485.83C160.213 489.118 162.204 492.141 164.204 494.886C164.204 494.888 164.204 494.893 164.204 494.897Z" fill="#A7948D"/>
<path d="M171.071 510.329L164.75 502.521C164.298 499.931 164.13 497.378 164.206 494.897C164.206 494.892 164.206 494.886 164.206 494.886C164.25 493.34 164.387 491.822 164.599 490.34C166.081 480.046 171.308 471.281 175.951 466.171C184.449 457.068 195.33 454.484 204.932 454.484C206.718 454.484 208.457 454.574 210.131 454.724L188.615 435.514C188.523 435.433 188.437 435.347 188.353 435.26C174.983 421.185 174.665 406.635 177.503 395.829C178.633 393.125 179.482 391.546 179.482 391.546C179.426 396.097 179.755 400.392 180.394 404.436C178.99 413.237 182.853 421.21 182.853 421.21L186.947 424.874C198.904 448.702 221.004 458.821 221.004 458.821C218.143 458.575 215.442 458.458 212.888 458.458C159.182 458.458 171.071 510.329 171.071 510.329Z" fill="#6D4C41"/>
<path d="M315.92 442.085C315.92 442.085 283.887 420.391 256.012 394.781L308.782 435.886C311.099 437.929 313.474 439.994 315.92 442.085ZM273.676 401.879L241.634 372.3C241.544 372.21 241.447 372.123 241.351 372.039C241.26 371.955 241.164 371.875 241.067 371.797C240.916 371.681 240.764 371.578 240.606 371.482C227.018 361.548 219.468 350.773 218.17 339.444C217.561 334.134 218.431 329.32 219.775 325.36C219.778 325.353 219.778 325.353 219.781 325.35C218.901 327.941 218.225 330.899 218.031 334.124C219.784 327.712 223 323.117 224.195 321.561C224.379 321.438 224.569 321.316 224.759 321.197C224.759 321.197 225.604 350.051 273.676 401.879Z" fill="#E2B273"/>
<path d="M234.535 372.933C218.721 354.597 209.767 336.757 219.773 325.361C218.43 329.321 217.56 334.135 218.171 339.448C219.469 350.777 227.016 361.549 240.605 371.485C239.893 371.059 239.106 370.855 238.317 370.855C236.987 370.855 235.667 371.446 234.784 372.581C234.695 372.696 234.612 372.811 234.535 372.933ZM241.632 372.303L241.347 372.041C241.446 372.124 241.542 372.21 241.632 372.303Z" fill="#6D4C41"/>
<path d="M218.033 334.125C218.223 330.899 218.903 327.943 219.782 325.348C220.976 323.992 222.442 322.727 224.193 321.561C223.002 323.117 219.782 327.711 218.033 334.125Z" fill="#E2C7A7"/>
<path d="M308.782 435.885L256.012 394.783C248.277 387.676 240.855 380.26 234.538 372.931C234.614 372.811 234.696 372.695 234.786 372.578C235.667 371.446 236.986 370.854 238.319 370.854C239.104 370.854 239.895 371.058 240.604 371.484C240.761 371.577 240.916 371.682 241.065 371.799C241.161 371.875 241.26 371.957 241.351 372.041L241.634 372.301L273.678 401.881C283.344 412.303 294.924 423.655 308.782 435.885Z" fill="#6D4C41"/>
<path d="M278.707 506.958L277.446 505.83L277.393 505.78C277.826 506.169 278.268 506.566 278.707 506.958ZM249.697 479.344L229.411 459.978C229.313 459.875 229.212 459.774 229.103 459.676L194.712 428.969C180.651 414.059 184.796 398.754 188.869 390.515C188.869 390.517 188.869 390.52 188.869 390.523C187.138 394.036 185.389 398.833 185.045 404.337C186.27 399.814 188.195 396.148 189.635 393.821C192.306 403.263 203.69 432.446 249.697 479.344Z" fill="#E2B273"/>
<path d="M229.409 459.983L229 459.594C228.874 459.471 228.718 459.337 228.569 459.23C227.769 458.637 226.838 458.355 225.912 458.355C225.464 458.355 225.017 458.422 224.592 458.551L186.946 424.875C183.964 418.934 181.614 412.14 180.395 404.436C181.158 399.642 183.488 394.598 188.859 390.464C188.859 390.464 188.859 390.481 188.868 390.517C184.795 398.758 180.649 414.061 194.708 428.973L229.101 459.681C229.21 459.776 229.311 459.877 229.409 459.983Z" fill="#6D4C41"/>
<path d="M185.043 404.336C185.387 398.835 187.135 394.039 188.866 390.526C188.905 390.786 189.087 391.891 189.633 393.823C188.195 396.15 186.268 399.817 185.043 404.336Z" fill="#E2C7A7"/>
<path d="M277.444 505.834L224.591 458.552C225.018 458.42 225.464 458.355 225.913 458.355C226.836 458.355 227.77 458.638 228.571 459.231C228.718 459.339 228.872 459.473 229.001 459.593L229.41 459.982L249.694 479.344C257.806 487.611 266.986 496.423 277.392 505.782L277.444 505.834Z" fill="#6D4C41"/>
<path d="M186.946 424.874L182.851 421.211C182.851 421.211 178.99 413.239 180.395 404.435C181.615 412.138 183.966 418.933 186.946 424.874Z" fill="#6D4C41"/>
<path d="M365.697 383.244C363.824 381.687 361.978 380.149 360.149 378.62L358.028 376.702L365.697 383.244Z" fill="#E2B273"/>
<path d="M360.149 378.616C348.432 368.819 337.618 359.552 327.645 350.798L358.029 376.703L360.149 378.616Z" fill="#6D4C41"/>
<path d="M272.846 299.754L271.172 298.247C271.098 298.174 271.016 298.1 270.935 298.03C270.865 297.972 270.791 297.906 270.717 297.847C270.71 297.844 270.702 297.836 270.698 297.832L217.9 253.632C209.659 246.707 205.142 238.928 204.472 230.496C203.955 223.972 205.803 217.96 207.956 213.365C206.242 217.028 204.719 221.587 204.434 226.589C205.654 222.092 207.623 218.255 209.288 215.536C210.828 222.954 219.967 246.769 272.846 299.754Z" fill="#E2B273"/>
<path d="M271.172 298.248L270.943 298.038C270.939 298.038 270.939 298.034 270.935 298.03C271.016 298.1 271.098 298.174 271.172 298.248ZM270.698 297.832C269.878 297.195 268.911 296.884 267.948 296.884C267.039 296.884 266.135 297.164 265.369 297.7L201.847 243.534C201.847 243.534 197.425 219.455 207.956 213.366C205.803 217.96 203.955 223.972 204.472 230.497C205.142 238.928 209.659 246.707 217.9 253.632L270.698 297.832Z" fill="#6D4C41"/>
<path d="M204.435 226.589C204.721 221.583 206.243 217.023 207.957 213.362C208.288 213.175 208.635 213 208.994 212.845C208.994 212.845 208.903 213.673 209.289 215.535C207.624 218.252 205.655 222.092 204.435 226.589Z" fill="#E2C7A7"/>
<path d="M327.647 350.798L265.37 297.696C266.132 297.16 267.039 296.884 267.949 296.884C268.91 296.884 269.881 297.191 270.697 297.828C270.704 297.834 270.71 297.841 270.721 297.848C270.791 297.902 270.869 297.969 270.936 298.03C270.94 298.033 270.94 298.033 270.943 298.037L271.172 298.246L272.845 299.753C287.497 314.438 305.51 331.362 327.647 350.798Z" fill="#6D4C41"/>
<path d="M391.659 305.701L371.129 288.181C372.497 286.539 373.504 284.608 374.079 282.487L396.306 200.16C398.796 201.544 401.115 203.181 403.228 205.041L391.282 254.334C390.037 259.464 394.161 263.302 398.419 263.302C400.421 263.302 402.451 262.458 403.974 260.503C408.549 254.631 412.526 248.982 415.079 245.235L391.659 305.701Z" fill="#E2B273"/>
<path d="M394.181 307.857L391.657 305.704L415.079 245.236C416.971 242.471 418.082 240.74 418.082 240.74L417.45 250.876L394.181 307.857ZM404.954 197.9C402.873 196.129 400.602 194.571 398.171 193.255L398.98 190.248L406.174 192.864L404.954 197.9Z" fill="#6D4C41"/>
<path d="M403.226 205.038C401.114 203.178 398.798 201.543 396.306 200.161L398.169 193.257C400.621 194.587 402.889 196.154 404.953 197.917L403.226 205.038Z" fill="#E2C7A7"/>
<path d="M404.952 197.913C402.888 196.154 400.624 194.587 398.168 193.257L398.172 193.253C400.604 194.571 402.876 196.126 404.956 197.897L404.952 197.913Z" fill="#A7948D"/>
<path d="M371.13 288.178L367.726 285.274C368.653 284.153 369.359 282.814 369.766 281.318L384.903 225.247L395.647 189.031L398.982 190.245L398.172 193.253L396.304 200.158L374.082 282.483C373.505 284.609 372.497 286.54 371.13 288.178Z" fill="#6D4C41"/>
<path d="M367.726 285.277L367.223 284.846L384.902 225.249L369.765 281.321C369.361 282.815 368.652 284.153 367.726 285.277Z" fill="#6D4C41"/>
<path d="M392.573 311.799L380.587 298.473L379.849 301.512L365.968 289.068L367.222 284.848L367.725 285.278L371.129 288.183L391.656 305.701L394.181 307.858L392.573 311.799Z" fill="#6D4C41"/>
<path d="M39.875 659.931C37.4583 657.513 37.4583 653.595 39.875 651.179C42.2915 648.763 46.2097 648.763 48.6262 651.179C51.0429 653.595 51.0429 657.513 48.6262 659.931C46.2097 662.347 42.2915 662.347 39.875 659.931Z" fill="#6D4C41"/>
<path d="M11.6839 621.966C13.2663 621.966 14.6464 619.588 15.3775 616.059C15.595 615.011 16.411 614.193 17.4601 613.976C20.9885 613.246 23.3676 611.864 23.3676 610.282C23.3676 608.7 20.9885 607.321 17.4601 606.59C16.411 606.373 15.595 605.555 15.3775 604.507C14.6464 600.978 13.2663 598.6 11.6839 598.6C10.1015 598.6 8.72121 600.978 7.99014 604.507C7.77267 605.555 6.95689 606.373 5.90756 606.59C2.37916 607.321 0 608.7 0 610.282C0 611.864 2.37916 613.246 5.90756 613.976C6.95689 614.193 7.77267 615.011 7.99014 616.059C8.72121 619.588 10.1015 621.966 11.6839 621.966Z" fill="#6D4C41"/>
<path d="M50.6592 175.205C47.7887 170.85 48.9889 164.999 53.34 162.128C57.6915 159.257 63.5456 160.459 66.4165 164.809C69.2866 169.16 68.0864 175.015 63.7353 177.886C59.3842 180.753 53.5297 179.556 50.6592 175.205Z" fill="#6D4C41"/>
<path d="M7.07886 217.332C7.76289 213.996 11.0238 211.843 14.3618 212.528C17.6997 213.213 19.8507 216.472 19.1667 219.812C18.4823 223.148 15.2214 225.301 11.8834 224.616C8.54541 223.931 6.39406 220.672 7.07886 217.332Z" fill="#6D4C41"/>
</svg>
